<svg xmlns="http://www.w3.org/2000/svg" width="96" height="128" viewBox="0 0 96 128" shape-rendering="geometricPrecision">
<rect x="0" y="0" width="96" height="128" fill="none" stroke="none" stroke-width="1" opacity="1"/>
<ellipse cx="48" cy="112" rx="26" ry="9" fill="#11161a" opacity="0.42"/>
<polygon points="38,102 46,102 44,118 35,118" fill="#1b2022" stroke="none" stroke-width="1" opacity="1"/>
<polygon points="51,102 60,101 64,118 54,118" fill="#1b2022" stroke="none" stroke-width="1" opacity="1"/>
<polygon points="34,48 60,44 69,102 29,102" fill="#3f4541" stroke="#11161a" stroke-width="2" opacity="1"/>
<polygon points="38,53 58,49 57,94 41,98" fill="#626a64" stroke="none" stroke-width="1" opacity="0.55"/>
<circle cx="48" cy="34" r="13" fill="#8b8072" stroke="#181b1d" stroke-width="2" opacity="1"/>
<polygon points="35,28 48,20 61,28 58,36 38,36" fill="#24282b" stroke="none" stroke-width="1" opacity="0.85"/>
<line x1="36" y1="58" x2="22" y2="86" stroke="#202529" stroke-width="5" opacity="1" stroke-linecap="round"/>
<line x1="61" y1="56" x2="76" y2="82" stroke="#202529" stroke-width="5" opacity="1" stroke-linecap="round"/>
</svg>
